<?xml version="1.0" encoding="UTF-8" standalone="no"?>
<!-- Generator: Adobe Illustrator 12.0.0, SVG Export Plug-In  -->

<svg
   xmlns:dc="http://purl.org/dc/elements/1.1/"
   xmlns:cc="http://creativecommons.org/ns#"
   xmlns:rdf="http://www.w3.org/1999/02/22-rdf-syntax-ns#"
   xmlns:svg="http://www.w3.org/2000/svg"
   xmlns="http://www.w3.org/2000/svg"
   xmlns:sodipodi="http://sodipodi.sourceforge.net/DTD/sodipodi-0.dtd"
   xmlns:inkscape="http://www.inkscape.org/namespaces/inkscape"
   version="1.1"
   width="580"
   height="567"
   viewBox="-0.094 -0.767 580 567"
   enable-background="new -0.094 -0.767 580 567"
   xml:space="preserve"
   id="svg2"
   inkscape:version="0.48.2 r9819"
   sodipodi:docname="Kikyo.svg"><metadata
   id="metadata20"><rdf:RDF><cc:Work
       rdf:about=""><dc:format>image/svg+xml</dc:format><dc:type
         rdf:resource="http://purl.org/dc/dcmitype/StillImage" /><dc:title></dc:title></cc:Work></rdf:RDF></metadata><sodipodi:namedview
   pagecolor="#ffffff"
   bordercolor="#666666"
   borderopacity="1"
   objecttolerance="10"
   gridtolerance="10"
   guidetolerance="10"
   inkscape:pageopacity="0"
   inkscape:pageshadow="2"
   inkscape:window-width="1209"
   inkscape:window-height="890"
   id="namedview18"
   showgrid="false"
   inkscape:zoom="0.33599427"
   inkscape:cx="340.80749"
   inkscape:cy="283.5"
   inkscape:window-x="489"
   inkscape:window-y="-3"
   inkscape:window-maximized="0"
   inkscape:current-layer="svg2" />
<defs
   id="defs4">
</defs>
<path
   d="M288.197,0c0,0-56.464,32.052-80.879,41.965c-24.416,9.922-55.702,54.172-33.573,88.508  c22.129,34.336,88.51,124.374,88.51,124.374s4.579-4.573,20.602-6.866v-51.888h9.92v51.888c0,0,13.735,0.763,22.891,6.866  c0,0,83.165-114.452,86.981-119.792c3.817-5.341,24.105-68.895-37.388-93.849C312.614,19.836,288.197,0,288.197,0z"
   id="path6"
   style="fill:#000000;fill-opacity:0.86784142" />
<path
   d="M332.45,304.816c0,24.229-19.645,43.875-43.872,43.875c-24.233,0-43.875-19.646-43.875-43.875  c0-24.229,19.642-43.87,43.875-43.87C312.806,260.946,332.45,280.588,332.45,304.816z"
   id="path8"
   style="fill:#000000;fill-opacity:0.86784142" />
<path
   d="M579.043,209.179c0,0-48.259-43.436-65.39-63.461s-69.003-35.719-94.579-3.865  c-25.579,31.843-90.008,123.292-90.008,123.292s5.785,2.899,13.029,17.375l49.222-16.409l3.138,9.409l-49.223,16.405  c0,0,3.619,13.278,0.724,23.891c0,0,134.873,42.71,141.147,44.639c6.277,1.937,72.981,1.086,77.214-65.136  C567.94,238.613,579.043,209.179,579.043,209.179z"
   id="path10"
   style="fill:#000000;fill-opacity:0.86784142" />
<path
   d="M0,209.179c0,0,48.258-43.436,65.389-63.461s69.003-35.719,94.579-3.865c25.579,31.843,90.008,123.292,90.008,123.292  s-5.787,2.899-13.03,17.375l-49.222-16.409l-3.137,9.409l49.222,16.405c0,0-3.618,13.278-0.724,23.891  c0,0-134.873,42.71-141.147,44.639c-6.277,1.937-72.981,1.086-77.215-65.136C11.102,238.613,0,209.179,0,209.179z"
   id="path12"
   style="fill:#000000;fill-opacity:0.86784142" />
<path
   d="M467.188,552.867c0,0,28.199-58.481,42.632-80.527c14.433-22.056,14.98-76.251-22.754-91.888  c-37.729-15.647-143.549-51.915-143.549-51.915s-1.165,6.361-13.039,17.371l29.527,42.663l-8.156,5.646l-29.524-42.663  c0,0-11.733,7.186-22.733,7.375c0,0-3.267,141.436-3.361,147.996c-0.102,6.566,19.376,70.375,84.137,55.911  C435.823,550.444,467.188,552.867,467.188,552.867z"
   id="path14"
   style="fill:#000000;fill-opacity:0.86784142" />
<path
   d="M109.738,550.02c0,0,64.476,7.605,90.022,14.074c25.553,6.459,76.969-10.681,79.464-51.448  c2.498-40.772,2.318-152.631,2.318-152.631s-6.395,0.972-20.67-6.667l-30.716,41.813l-7.999-5.872l30.72-41.813  c0,0-10.619-8.753-14.38-19.092c0,0-134.782,42.987-141.02,45.04c-6.24,2.039-60.222,41.244-25.452,97.756  C101.811,519.576,109.738,550.02,109.738,550.02z"
   id="path16"
   style="fill:#000000;fill-opacity:0.86784142" />
</svg>